# xmcd
#
# Track frame offsets: 
#        150
#        22341
#        48104
#        72518
#        95944
#        112498
#        133880
#        153532
#        174191
#        198979
#        220510
#
# Disc length: 3141 seconds
#
# Revision: 1
# Processed by: cddbd v1.5.2PL0 Copyright (c) Steve Scherf et al.
# Submitted via: ExactAudioCopy v0.99pb5
#
DISCID=a80c430b
DTITLE=David Clazado y la Charanga Habanera - !Se acabo el mundo Mañen
DTITLE=go !
DYEAR=2007
DGENRE=Salsa
TTITLE0=El rey
TTITLE1=El duro
TTITLE2=Me palpita
TTITLE3=El expediente
TTITLE4=Dime quién
TTITLE5=La mentirosa
TTITLE6=Chico caramelo
TTITLE7=Chichina
TTITLE8=Un hombre como tù
TTITLE9=El cañon
TTITLE10=Despedida
EXTD=YEAR: 2007
EXTT0=
EXTT1=
EXTT2=
EXTT3=
EXTT4=
EXTT5=
EXTT6=
EXTT7=
EXTT8=
EXTT9=
EXTT10=
PLAYORDER=
